# xmcd
#
# Track frame offsets:
#        187
#        13185
#        25772
#        45460
#        54550
#        69577
#        99092
#        113000
#        122777
#        144057
#        162007
#
# Disc length: 2469 seconds
#
# Revision: 5
# Processed by: cddbd v1.5.1PL2 Copyright (c) Steve Scherf et al.
# Submitted via: ExactAudioCopy v0.95b3
#
DISCID=8009a30b
DTITLE=Cream - Fresh Cream
DYEAR=1966
DGENRE=Rock
TTITLE0=I Feel Free
TTITLE1=N.S.U.
TTITLE2=Sleepy Time Time
TTITLE3=Dreaming
TTITLE4=Sweet Wine
TTITLE5=Spoonful
TTITLE6=Cat's Squirrel
TTITLE7=Four Until Late
TTITLE8=Rollin' And Tumblin'
TTITLE9=I'm So Glad
TTITLE10=Toad
EXTD=YEAR: 1966
EXTT0=
EXTT1=
EXTT2=
EXTT3=
EXTT4=
EXTT5=
EXTT6=
EXTT7=
EXTT8=
EXTT9=
EXTT10=
PLAYORDER=
